PathFileType	4	(X/Y/Z)	Patient4_TMGait_0pt3_01_left_28.trc.trc
DataRate	CameraRate	NumFrames	NumMarkers	Units	OrigDataRate	OrigDataStartFrame	OrigNumFrames
51.094890510949	51.094890510949	4	33	mm	51.094890510949	124	       141
Frame#	Time	Sacral			L.Shoulder			Chest			R.Shoulder			Neck			R.ASIS			L.ASIS			R.Thigh.Superior			R.Thigh.Lateral			R.Thigh.Inferior			R.Patella			L.Thigh.Superior			L.Thigh.Lateral			L.Thigh.Inferior			L.Patella			L.Shank.Superior			L.Shank.Lateral			L.Shank.Inferior			R.Shank.Superior			R.Shank.Lateral			R.Shank.Inferior			R.Heel			R.Midfoot.Superior			R.Midfoot.Lateral			R.Toe			L.Heel			L.Midfoot.Lateral			L.Midfoot.Superior			L.Toe			L.Elbow			L.Wrist			R.Elbow			R.Wrist			
		X1	Y1	Z1	X2	Y2	Z2	X3	Y3	Z3	X4	Y4	Z4	X5	Y5	Z5	X6	Y6	Z6	X7	Y7	Z7	X8	Y8	Z8	X9	Y9	Z9	X10	Y10	Z10	X11	Y11	Z11	X12	Y12	Z12	X13	Y13	Z13	X14	Y14	Z14	X15	Y15	Z15	X16	Y16	Z16	X17	Y17	Z17	X18	Y18	Z18	X19	Y19	Z19	X20	Y20	Z20	X21	Y21	Z21	X22	Y22	Z22	X23	Y23	Z23	X24	Y24	Z24	X25	Y25	Z25	X26	Y26	Z26	X27	Y27	Z27	X28	Y28	Z28	X29	Y29	Z29	X30	Y30	Z30	X31	Y31	Z31	X32	Y32	Z32	X33	Y33	Z33	

124	55.187285714286	719.311985365622	1001.648563282117	554.372387214639	864.458472670855	1412.646813273279	324.236488622850	998.014224168473	1348.782093845692	463.455004548195	956.143676295715	1437.113742694316	644.515322600096	885.168032472562	1483.791794662419	476.722597042358	959.869531613754	927.693863247385	633.614223875555	905.925982164099	953.780993684351	364.457516614549	958.374948194878	715.230028524989	597.787278551928	863.050870114423	615.711121645582	662.949198749656	918.438525824209	555.377268388688	574.777935382207	899.218532603990	466.225625676221	578.796775750087	985.351705428924	764.582835342399	393.209806523577	927.025518311329	638.573046631874	318.752661090310	1026.713376814749	576.635839341496	381.125450904365	1047.000763999377	509.486313904411	379.239412147293	1027.882202736204	436.761035063946	365.438080308147	956.831913134873	313.556757383286	304.980693582518	1032.605605644657	206.808456895885	362.445426073841	851.979279969145	384.529085786066	587.164616495785	763.167412069366	296.491113232740	651.448478811847	779.713819174703	197.478463075798	585.005694720462	614.682149893647	48.304791005261	556.612458464539	788.243144102753	96.666117695254	594.257493709444	696.539923528998	39.139926786619	632.070187939892	904.583963717734	39.070971288519	626.495746862089	931.480492010767	37.713001272937	388.996730109945	1010.484195106851	37.954347519607	313.402304181257	1086.847628531812	106.897420212529	342.498021123023	1218.537990007732	65.681620660045	323.089995417819	715.023144959048	1084.994641936629	265.002891633289	687.138597798183	826.991484173434	297.638875378155	1133.103003067778	1157.081079919469	759.197066045573	1328.659217673936	1263.970205146224	643.925421378380	
125	55.206857142857	720.333523486341	1000.679564363226	551.021617667272	865.174881452134	1410.692515316844	319.336159550422	999.215606764206	1347.039407898292	458.269599629050	957.929776729894	1435.906301641596	639.133659588367	886.446109898180	1482.265231370948	471.509036208433	961.052505257295	926.320738753118	630.246680487709	906.562186839781	951.820946719989	361.158312456476	957.418226718970	713.519621419484	595.283417493490	860.756040629549	615.198777071012	660.867366776013	915.283286509583	553.957118389237	572.954856241887	894.796062471683	465.140258138468	577.164868670332	986.342869923035	763.114967847986	390.196341030862	927.340318708626	636.727002456971	316.741488995639	1027.987439020417	575.437323705988	378.105825268751	1047.200390886231	507.581135709239	376.886353462985	1028.027374452881	434.598709990005	363.434362491494	955.814580091922	311.937442117896	303.785078963749	1030.260907121339	204.866539289814	361.692811035894	847.305286704663	383.806538153324	586.030796072575	757.977953466757	296.499631488550	650.906827019894	774.080968616288	197.148032969270	584.758381731688	608.714823005046	48.071718823696	556.667105005713	782.256196796729	96.546837041667	594.189356407666	690.598379301701	38.934286731798	632.122354349639	898.720368503665	39.064230921494	626.500021253537	926.829231551685	37.871630150216	389.078626690678	1005.333907458638	37.376507099827	312.898846625985	1082.930672267902	104.725306504821	342.084955435511	1213.926530092985	61.387462894632	321.634837981923	717.414628069916	1082.109052742841	261.836798030421	690.890185106338	823.831060993021	295.183787020927	1140.430112622017	1160.205103311864	752.498264618004	1328.537798733596	1276.478988432384	634.427680547433	
126	55.226428571429	721.412727248529	999.887663312927	547.456130271757	866.039692663483	1408.923346913718	314.249658708333	1000.531466261609	1345.479720812032	452.927544583251	959.773817599492	1434.810448329740	633.615772116485	887.808690163906	1480.909552431707	466.098530015035	962.345568465089	925.163125505334	626.679523321197	907.335192756059	950.054693767635	357.647450385904	956.825756477887	712.046032607146	592.725402725774	858.935107009918	614.838549900719	658.691400411408	912.777890749555	552.703499101929	571.111470838228	891.164547174910	464.132812817293	575.577636874751	987.731322060594	762.071217090154	387.405854015447	928.441558278615	635.210115399229	314.854542219657	1029.891848533046	574.532350743410	375.436149930138	1048.112697197599	505.854995540178	374.853148956673	1028.633040897923	432.545346275672	361.754929318013	954.932934394182	310.646599010329	302.781182984225	1027.514398950783	202.972137063975	361.229602045129	843.246467469980	383.207784583167	584.925572929049	753.238066272394	296.796423676390	650.392483071622	768.771399447847	197.049743410427	584.606806659342	602.856695275246	48.343748112050	556.807983228175	776.448121632656	96.510561989721	594.185416564577	684.757163455699	38.962534369626	632.221231229413	892.939996988616	38.957519825717	626.526976004632	921.214810668567	38.095353583523	389.360021818837	999.240528045637	36.885433729747	312.625444168790	1078.127565274665	102.618363754819	341.940537682241	1208.431328925086	57.077541953897	320.425346878832	720.700913196078	1079.023746008205	258.229193328787	695.872749031737	820.461942948585	291.966530670730	1146.989643144982	1162.807369923071	745.633727908628	1328.487612917172	1286.772726607449	625.337048975778	
127	55.246000000000	722.543718108973	999.391728244063	543.665154633456	867.048150069228	1407.478937091919	309.035467916030	1001.958003174121	1344.216260492473	447.471855587340	961.687808311920	1433.933530383139	628.011339871307	889.248198132821	1479.836650097205	460.562805295418	963.693359997437	924.316287745160	622.903905156060	908.243092303289	948.608701230146	353.908735063871	956.516570300553	710.892485172703	590.115208346481	857.523034320952	614.713325106779	656.437458490825	910.866675368832	551.695353232025	569.268062621321	888.283649895940	463.284708836062	574.072577957625	989.402301209345	761.488793638773	384.805889131559	930.163557786638	634.093517484260	313.006575023417	1032.169385391400	573.917762634397	373.092981190630	1049.517513995456	504.384653023254	373.118968630847	1029.539465434716	430.708036945401	360.367809822686	954.217211020012	309.705130561365	301.880171314447	1024.522693162442	201.246559071266	360.997977070674	839.778950857303	382.813598963926	583.870198593597	748.929041653895	297.452182117412	649.892848280660	763.806776966836	197.254599976985	584.551525593351	597.124986905363	49.217754162557	557.033163823601	770.857091383464	96.589785776776	594.256970385928	679.025801712440	39.289036067087	632.364569185081	887.238687339992	38.749522831749	626.574963087969	915.056730754827	38.341893595528	389.719786346284	992.679339382248	36.508422273577	312.524867183238	1072.779662751024	100.745821114857	342.015577995534	1202.463507986271	53.113508759215	319.534322614766	724.674719148491	1076.003791731163	254.165179095381	701.924823422309	817.153631199360	287.969956825559	1152.798740017110	1164.970724114740	738.654545772636	1328.755772432543	1294.982486818940	616.634638745434	
